<?xml version="1.0" standalone="no"?>
<!DOCTYPE svg PUBLIC "-//W3C//DTD SVG 20010904//EN"
 "http://www.w3.org/TR/2001/REC-SVG-20010904/DTD/svg10.dtd">
<svg version="1.0" xmlns="http://www.w3.org/2000/svg"
 width="492.000000pt" height="75.000000pt" viewBox="0 0 492.000000 75.000000"
 preserveAspectRatio="xMidYMid meet">
<metadata>
Created by potrace 1.16, written by Peter Selinger 2001-2019
</metadata>
<g transform="translate(0.000000,75.000000) scale(0.100000,-0.100000)"
fill="#000000" stroke="none">
<path d="M2714 726 c-38 -17 -44 -31 -44 -109 l0 -62 -23 40 c-13 23 -43 52
-71 70 l-49 30 -183 3 c-174 3 -183 3 -203 -17 -20 -20 -21 -30 -21 -329 0
-286 1 -310 18 -325 44 -40 129 -29 151 19 6 14 11 56 11 93 l0 68 93 6 c50 3
109 12 129 18 45 15 104 61 129 103 l19 31 0 -156 c0 -139 2 -159 19 -180 16
-20 29 -24 70 -24 81 0 85 8 91 190 5 145 6 155 29 179 31 33 61 33 92 0 23
-24 24 -33 27 -177 4 -169 9 -182 69 -193 47 -9 89 11 102 48 6 17 11 58 11
91 l0 61 26 -52 c50 -100 133 -146 264 -146 184 1 290 102 290 274 0 98 -32
168 -97 214 -64 45 -97 54 -193 55 -71 1 -93 -3 -135 -24 -75 -36 -119 -81
-139 -140 l-13 -37 -11 57 c-22 107 -71 145 -189 145 -50 0 -77 -5 -100 -20
l-33 -20 0 89 c0 70 -4 93 -17 110 -23 27 -79 35 -119 17z m-260 -197 c40 -31
49 -64 31 -103 -20 -42 -51 -56 -125 -56 l-60 0 0 90 0 90 64 0 c49 0 69 -5
90 -21z m1073 -145 c105 -67 47 -252 -71 -230 -64 12 -114 94 -96 157 11 38
26 57 65 81 32 20 63 17 102 -8z"/>
<path d="M508 707 c-99 -37 -157 -88 -206 -181 -25 -47 -27 -60 -27 -166 0
-102 3 -121 24 -165 71 -143 233 -216 414 -186 78 13 176 53 202 81 9 10 19
36 22 58 l5 40 27 -51 c33 -63 100 -111 178 -127 102 -22 221 6 268 61 22 27
25 28 34 11 6 -10 38 -32 73 -47 54 -25 76 -29 153 -29 151 -1 215 50 215 170
0 56 -3 67 -31 98 -19 22 -51 43 -87 56 -106 38 -133 53 -130 69 5 24 42 25
94 2 87 -39 144 -20 144 48 0 67 -69 101 -205 101 -66 0 -90 -4 -125 -23 -51
-27 -80 -75 -80 -132 l-1 -40 -14 39 c-19 53 -63 106 -111 130 -54 29 -188 35
-249 12 -52 -20 -112 -76 -135 -128 l-17 -38 -23 25 c-23 24 -28 25 -152 25
-115 0 -130 -2 -148 -20 -12 -12 -20 -33 -20 -54 0 -50 37 -76 106 -76 l54 0
0 -39 c0 -36 -3 -40 -40 -55 -75 -30 -154 -12 -206 46 -84 92 -68 241 34 312
59 42 117 41 197 -3 96 -52 165 -29 165 56 0 51 -20 75 -89 106 -58 27 -254
35 -313 14z m1018 -452 c15 -9 63 -30 108 -45 64 -21 81 -31 81 -46 0 -30 -55
-30 -121 0 -86 40 -136 32 -157 -24 -4 -12 -6 -12 -6 2 -3 52 -67 61 -147 22
-64 -31 -93 -27 -138 19 l-31 32 156 5 c176 6 199 14 199 74 l1 31 14 -26 c8
-14 26 -34 41 -44z"/>
<path d="M3795 525 l-25 -24 0 -224 c0 -206 2 -227 19 -248 16 -20 29 -24 70
-24 81 0 85 8 91 190 5 145 6 155 29 179 31 33 61 33 92 0 23 -24 24 -33 27
-177 4 -169 9 -182 69 -193 72 -14 113 29 113 120 l0 41 25 -42 c50 -82 169
-132 285 -119 66 8 137 41 163 77 17 23 18 32 8 62 -19 56 -63 62 -147 21 -64
-31 -93 -27 -138 19 l-31 32 156 5 c139 4 160 7 179 25 20 18 22 27 17 82 -8
101 -67 182 -156 212 -54 18 -179 14 -226 -8 -47 -21 -98 -69 -122 -115 l-17
-31 -8 39 c-11 51 -44 95 -84 112 -52 22 -162 18 -202 -6 l-33 -20 -26 20
c-37 29 -97 27 -128 -5z"/>
</g>
</svg>
